<?xml version="1.0" ?><!DOCTYPE svg  PUBLIC '-//W3C//DTD SVG 1.1//EN'  'http://www.w3.org/Graphics/SVG/1.1/DTD/svg11.dtd'><svg enable-background="new 0 0 512 512" height="512px" id="Layer_1" version="1.1" viewBox="0 0 512 512" width="512px" xml:space="preserve" xmlns="http://www.w3.org/2000/svg" xmlns:xlink="http://www.w3.org/1999/xlink"><g><path d="M437.017,74.986C390.659,28.629,326.733,0,255.999,0C185.262,0,121.335,28.629,74.983,74.986   C28.636,121.341,0,185.268,0,256s28.636,134.659,74.983,181.017C121.335,483.369,185.262,512,255.999,512   c70.734,0,134.66-28.631,181.018-74.983C483.363,390.659,512,326.732,512,256S483.363,121.341,437.017,74.986z"/><path clip-rule="evenodd" d="M282.082,238.14c-18.852,0.283-37.705,0.283-56.558,0.283   c-5.382,0-10.91-0.283-16.165,0c-1.126,0-2.828,1.275-2.828,1.984c-0.141,10.917-0.141,21.833-0.141,33.173   c15.448,0,30.615,0,46.063,0c-0.419,2.262-0.843,3.963-1.555,5.522c-6.952,20.982-28.641,31.333-52.026,27.506   c-28.919-4.821-46.771-31.474-41.53-60.388c0.57-4.112,1.983-8.081,3.402-11.769c9.633-20.978,33.307-33.735,56.702-28.49   c8.36,1.843,15.595,5.672,21.679,11.198c8.507-8.504,16.59-16.585,25.377-25.372c-0.565-0.427-1.555-1.136-2.12-1.843   c-20.414-17.153-43.81-23.535-70.033-19.14c-37.85,6.096-65.057,35.866-70.868,70.591c-2.691,14.745-1.56,30.477,4.256,45.784   c14.46,36.72,51.446,59.252,91.139,54.859c19.418-2.125,36.72-9.067,50.04-23.386c19.973-21.265,25.224-46.781,21.972-74.986   C288.313,238.991,286.475,238.14,282.082,238.14L282.082,238.14z" fill="#FFFFFF" fill-rule="evenodd"/><polygon clip-rule="evenodd" fill="#FFFFFF" fill-rule="evenodd" points="392.298,240.478 362.175,240.478 362.175,210.354    340.062,210.354 340.062,240.478 309.938,240.478 309.938,262.591 340.062,262.591 340.062,292.714 362.175,292.714    362.175,262.591 392.298,262.591  "/></g></svg>