<?xml version="1.0" ?><!DOCTYPE svg  PUBLIC '-//W3C//DTD SVG 1.1//EN'  'http://www.w3.org/Graphics/SVG/1.1/DTD/svg11.dtd'><svg enable-background="new 0 0 512 512" height="512px" id="Layer_1" version="1.1" viewBox="0 0 512 512" width="512px" xml:space="preserve" xmlns="http://www.w3.org/2000/svg" xmlns:xlink="http://www.w3.org/1999/xlink"><g><path d="M437.013,74.985C390.661,28.631,326.729,0,255.998,0C185.266,0,121.337,28.631,74.985,74.985   C28.634,121.337,0,185.266,0,255.997S28.634,390.66,74.985,437.012C121.337,483.368,185.266,512,255.998,512   c70.731,0,134.663-28.632,181.015-74.988C483.364,390.66,512,326.729,512,255.997S483.364,121.337,437.013,74.985z"/><path clip-rule="evenodd" d="M385.84,196.464c-14.74,82.494-96.531,152.52-121.338,168.544   c-24.382,15.873-47.059-6.664-55.139-23.537c-9.353-19.134-37.138-123.601-44.647-132.391c-7.094-8.648-29.202,8.79-29.202,8.79   l-10.63-14.035c0,0,44.504-53.297,78.668-59.961c35.861-6.944,35.861,55.139,44.363,90.01   c8.509,33.452,14.035,52.445,21.406,52.445c7.232,0,21.265-18.563,36.575-47.194c15.305-28.636-0.568-54.011-30.62-35.866   C287.324,131.26,400.442,113.966,385.84,196.464L385.84,196.464z" fill="#FFFFFF" fill-rule="evenodd"/></g></svg>